<?xml version="1.0" standalone="no"?>
<!DOCTYPE svg PUBLIC "-//W3C//DTD SVG 20010904//EN"
 "http://www.w3.org/TR/2001/REC-SVG-20010904/DTD/svg10.dtd">
<svg version="1.0" xmlns="http://www.w3.org/2000/svg"
 width="261.000000pt" height="261.000000pt" viewBox="0 0 261.000000 261.000000"
 preserveAspectRatio="xMidYMid meet">
<metadata>
Created by potrace 1.11, written by Peter Selinger 2001-2013
</metadata>
<g transform="translate(0.000000,261.000000) scale(0.100000,-0.100000)"
fill="#000000" stroke="none">
<path d="M10 1310 l0 -1300 530 0 530 0 0 250 0 250 -267 2 -268 3 0 295 0
295 243 3 242 2 0 245 0 245 -245 0 -245 0 0 250 0 250 255 0 255 0 0 255 0
255 -515 0 -515 0 0 -1300z"/>
<path d="M1280 1310 l0 -1300 255 0 255 0 2 614 3 614 124 -551 c68 -304 131
-580 139 -614 l14 -63 267 0 268 0 -174 703 -175 702 142 590 c79 325 145 593
147 598 2 4 -114 6 -258 5 l-263 -3 -117 -505 -117 -505 -1 508 -1 507 -255 0
-255 0 0 -1300z"/>
</g>
</svg>
